<svg width="20" height="21" viewBox="0 0 20 21" fill="none" xmlns="http://www.w3.org/2000/svg">
<path d="M19.4744 9.57745C19.7277 9.237 19.8957 8.84085 19.9644 8.42214C20.0331 8.00343 20.0006 7.57435 19.8695 7.17081C19.7383 6.76727 19.5124 6.401 19.2107 6.10267C18.909 5.80434 18.5402 5.58262 18.1352 5.45607C17.8593 5.37126 17.6184 5.19919 17.4488 4.96571C17.2791 4.73224 17.1898 4.44999 17.1943 4.1614C17.1997 3.81047 17.1349 3.46199 17.0037 3.13647C16.8724 2.81096 16.6774 2.51499 16.4301 2.26597C16.1827 2.01619 15.8886 1.81758 15.5645 1.6815C15.2404 1.54542 14.8927 1.47453 14.5412 1.47287C14.2513 1.47321 13.9634 1.52091 13.6889 1.61408C13.5509 1.66068 13.4063 1.68445 13.2607 1.68443C13.0465 1.68422 12.8355 1.63279 12.6453 1.53445C12.455 1.43611 12.291 1.29369 12.167 1.11909C11.9211 0.773274 11.5961 0.491269 11.2191 0.296603C10.8421 0.101938 10.424 0.000257602 9.99975 4.64371e-05C9.57498 -0.00247934 9.15593 0.0980658 8.77855 0.293058C8.40117 0.488051 8.07672 0.771671 7.83303 1.11959C7.70899 1.2942 7.54501 1.43661 7.35474 1.53496C7.16448 1.6333 6.95347 1.68472 6.73929 1.68494C6.59369 1.68494 6.44906 1.66117 6.31111 1.61458C6.03659 1.52142 5.74869 1.47373 5.4588 1.47338C5.10732 1.47494 4.7596 1.54574 4.43551 1.68174C4.11141 1.81773 3.81728 2.01626 3.56994 2.26597C3.3226 2.51499 3.12757 2.81096 2.99632 3.13647C2.86507 3.46199 2.80026 3.81047 2.80569 4.1614C2.81018 4.45005 2.72081 4.73235 2.55104 4.96583C2.38127 5.19931 2.14027 5.37135 1.8643 5.45607C1.4593 5.58262 1.0905 5.80434 0.788775 6.10267C0.487049 6.401 0.26117 6.76727 0.130042 7.17081C-0.0010852 7.57435 -0.033646 8.00343 0.0350848 8.42214C0.103816 8.84085 0.271839 9.237 0.525092 9.57745C0.698383 9.80823 0.792072 10.089 0.792072 10.3776C0.792072 10.6662 0.698383 10.947 0.525092 11.1778C0.271839 11.5183 0.103816 11.9144 0.0350848 12.3331C-0.033646 12.7518 -0.0010852 13.1809 0.130042 13.5844C0.26117 13.988 0.487049 14.3543 0.788775 14.6526C1.0905 14.9509 1.4593 15.1726 1.8643 15.2992C2.14017 15.384 2.38106 15.5561 2.55074 15.7895C2.72041 16.023 2.8097 16.3053 2.80518 16.5939C2.79975 16.9448 2.86456 17.2933 2.99581 17.6188C3.12706 17.9443 3.32209 18.2403 3.56943 18.4893C3.91865 18.8451 4.36126 19.0951 4.84631 19.2104C5.33135 19.3257 5.83911 19.3017 6.31111 19.1412C6.58443 19.0491 6.88018 19.0477 7.15438 19.1371C7.42858 19.2266 7.66659 19.4021 7.83303 19.6377C8.07689 19.9853 8.40141 20.2687 8.77878 20.4634C9.15615 20.6581 9.57511 20.7584 9.99975 20.7557C10.4239 20.7555 10.8418 20.654 11.2187 20.4595C11.5956 20.265 11.9206 19.9832 12.1665 19.6377C12.3332 19.4024 12.5714 19.2272 12.8457 19.1381C13.12 19.049 13.4157 19.0508 13.6889 19.1432C14.1609 19.3038 14.6686 19.3278 15.1537 19.2124C15.6387 19.0971 16.0813 18.8471 16.4306 18.4913C16.6779 18.2423 16.8729 17.9463 17.0042 17.6208C17.1354 17.2953 17.2003 16.9468 17.1948 16.5959C17.1903 16.3073 17.2796 16.025 17.4493 15.7916C17.6189 15.5581 17.8598 15.386 18.1357 15.3012C18.5407 15.1747 18.9095 14.9529 19.2112 14.6546C19.513 14.3563 19.7388 13.99 19.87 13.5865C20.0011 13.1829 20.0336 12.7539 19.9649 12.3351C19.8962 11.9164 19.7282 11.5203 19.4749 11.1798C19.3015 10.9491 19.2078 10.6683 19.2078 10.3797C19.2078 10.091 19.3015 9.81022 19.4749 9.57947L19.4744 9.57745ZM18.4186 8.79194C18.0751 9.24921 17.8893 9.80569 17.8893 10.3776C17.8893 10.9496 18.0751 11.506 18.4186 11.9633C18.5465 12.1351 18.6314 12.335 18.6661 12.5463C18.7009 12.7576 18.6845 12.9741 18.6184 13.1778C18.5523 13.3815 18.4384 13.5664 18.2861 13.717C18.1339 13.8676 17.9478 13.9796 17.7435 14.0435C17.1968 14.2116 16.7195 14.5526 16.3834 15.0153C16.0472 15.4779 15.8704 16.0372 15.8794 16.609C15.882 16.7856 15.8493 16.9609 15.7832 17.1246C15.7172 17.2883 15.6191 17.4372 15.4947 17.5626C15.3188 17.7432 15.0953 17.8702 14.85 17.9287C14.6048 17.9872 14.348 17.9748 14.1095 17.8931C13.5682 17.7102 12.9823 17.7067 12.4389 17.8832C11.8955 18.0597 11.4235 18.4068 11.093 18.8729C10.9691 19.0476 10.8051 19.19 10.6149 19.2883C10.4246 19.3866 10.2136 19.4379 9.99949 19.4379C9.78536 19.4379 9.57434 19.3866 9.38409 19.2883C9.19385 19.19 9.02992 19.0476 8.90601 18.8729C8.57556 18.4069 8.10364 18.0599 7.56033 17.8834C7.01701 17.7069 6.43125 17.7103 5.89001 17.8931C5.65152 17.9748 5.3947 17.9872 5.14947 17.9287C4.90423 17.8702 4.68065 17.7432 4.50475 17.5626C4.38031 17.437 4.28223 17.2878 4.21626 17.1238C4.15029 16.9598 4.11777 16.7843 4.1206 16.6075C4.12927 16.0359 3.95219 15.4769 3.61595 15.0145C3.27972 14.5522 2.80251 14.2114 2.25604 14.0435C2.05162 13.9796 1.86548 13.8677 1.7132 13.7171C1.56092 13.5665 1.44692 13.3817 1.38076 13.178C1.3146 12.9743 1.2982 12.7577 1.33292 12.5464C1.36765 12.3351 1.4525 12.1351 1.58036 11.9633C1.92382 11.506 2.10952 10.9496 2.10952 10.3776C2.10952 9.80571 1.92382 9.24925 1.58036 8.79194C1.45261 8.62014 1.36785 8.42025 1.33318 8.20898C1.29851 7.99772 1.31494 7.78122 1.3811 7.5776C1.44725 7.37399 1.56121 7.18918 1.71343 7.03863C1.86565 6.88808 2.0517 6.77617 2.25604 6.71227C2.80267 6.54419 3.27995 6.20317 3.61611 5.74051C3.95227 5.27784 4.12913 4.71855 4.1201 4.14673C4.11726 3.96997 4.14978 3.79443 4.21575 3.63042C4.28172 3.46641 4.37981 3.31723 4.50424 3.19167C4.62889 3.0653 4.77721 2.96472 4.94073 2.89568C5.10426 2.82664 5.27978 2.79049 5.45728 2.7893C5.60414 2.78959 5.74997 2.81387 5.889 2.86117C6.16244 2.95362 6.44913 3.0008 6.73777 3.00086C7.16211 3.00055 7.58021 2.89877 7.95721 2.70402C8.33421 2.50927 8.65918 2.22719 8.905 1.88131C9.0289 1.70667 9.19284 1.56424 9.38308 1.46595C9.57333 1.36766 9.78435 1.31637 9.99848 1.31637C10.2126 1.31637 10.4236 1.36766 10.6139 1.46595C10.8041 1.56424 10.9681 1.70667 11.092 1.88131C11.3378 2.22719 11.6627 2.50927 12.0398 2.70402C12.4168 2.89877 12.8349 3.00055 13.2592 3.00086C13.5478 3.00082 13.8345 2.95364 14.108 2.86117C14.247 2.81387 14.3928 2.78959 14.5397 2.7893C14.7173 2.79043 14.8929 2.82654 15.0565 2.89558C15.2201 2.96462 15.3685 3.06524 15.4932 3.19167C15.6177 3.31723 15.7157 3.46641 15.7817 3.63042C15.8477 3.79443 15.8802 3.96997 15.8774 4.14673C15.8685 4.7188 16.0456 5.2783 16.3822 5.74099C16.7187 6.20369 17.1964 6.54455 17.7435 6.71227C17.9479 6.77615 18.134 6.88806 18.2863 7.03864C18.4386 7.18923 18.5526 7.3741 18.6187 7.57779C18.6849 7.78148 18.7013 7.99805 18.6666 8.20938C18.6318 8.42071 18.547 8.62064 18.4191 8.79245L18.4186 8.79194Z" fill="#2BE79A"/>
<path d="M9.99981 3.94775C8.72851 3.94775 7.48577 4.32474 6.42872 5.03103C5.37168 5.73732 4.54781 6.74121 4.06131 7.91573C3.57481 9.09026 3.44751 10.3827 3.69553 11.6295C3.94355 12.8764 4.55574 14.0217 5.45468 14.9207C6.35362 15.8196 7.49894 16.4318 8.74581 16.6798C9.99268 16.9278 11.2851 16.8005 12.4596 16.314C13.6341 15.8275 14.638 15.0037 15.3443 13.9466C16.0506 12.8896 16.4276 11.6468 16.4276 10.3755C16.4257 8.67136 15.7479 7.03752 14.5429 5.83248C13.3378 4.62744 11.704 3.94963 9.99981 3.94775ZM9.99981 15.4874C8.98878 15.4874 8.00045 15.1876 7.15981 14.6259C6.31917 14.0642 5.66397 13.2658 5.27707 12.3318C4.89016 11.3977 4.78893 10.3699 4.98617 9.37826C5.18341 8.38666 5.67027 7.47581 6.38518 6.76091C7.10009 6.046 8.01093 5.55914 9.00254 5.3619C9.99414 5.16466 11.022 5.26589 11.956 5.6528C12.8901 6.0397 13.6885 6.6949 14.2502 7.53554C14.8119 8.37618 15.1117 9.36451 15.1117 10.3755C15.1102 11.7308 14.5712 13.0302 13.6128 13.9885C12.6545 14.9469 11.3551 15.4859 9.99981 15.4874Z" fill="#2BE79A"/>
</svg>
