<svg width="26" height="18" viewBox="0 0 26 18" fill="none" xmlns="http://www.w3.org/2000/svg">
<path d="M24.9909 9.0711C24.9909 7.03899 24.1996 5.12852 22.7626 3.69156C21.3257 2.25468 19.4153 1.4633 17.3832 1.46334C15.8204 1.46334 14.3299 1.93179 13.071 2.80155C11.8122 1.93187 10.3217 1.46334 8.75898 1.46334C6.72687 1.46334 4.81644 2.2546 3.37948 3.69156C1.94253 5.12852 1.15122 7.03899 1.15118 9.07106C1.15122 11.1031 1.94253 13.0136 3.37948 14.4506C4.81644 15.8875 6.72691 16.6788 8.75898 16.6789C10.3217 16.6789 11.8122 16.2104 13.071 15.3407C14.3299 16.2104 15.8204 16.6789 17.3831 16.6789C21.578 16.6789 24.9909 13.266 24.9909 9.0711ZM8.75898 15.5958C7.01614 15.5959 5.37763 14.9172 4.14525 13.6848C2.91287 12.4524 2.23417 10.8139 2.23417 9.07102C2.23417 7.32822 2.91287 5.68971 4.14525 4.45733C5.37763 3.22494 7.0161 2.54628 8.75891 2.54628C9.98846 2.54632 11.1658 2.88448 12.1856 3.5162C12.1242 3.57371 12.0634 3.63187 12.0036 3.6916C10.5667 5.12852 9.77538 7.03903 9.77535 9.0711C9.77535 11.1031 10.5667 13.0136 12.0036 14.4506C12.0634 14.5103 12.1242 14.5685 12.1856 14.626C11.1659 15.2577 9.98853 15.5959 8.75898 15.5958ZM13.071 13.9677C12.9681 13.8768 12.8674 13.7828 12.7694 13.6848C11.537 12.4524 10.8583 10.8139 10.8584 9.0711C10.8583 7.32825 11.5371 5.68971 12.7694 4.45736C12.8674 4.35942 12.9681 4.26539 13.071 4.17457C13.174 4.26546 13.2747 4.3595 13.3726 4.4574C14.605 5.68979 15.2837 7.32825 15.2837 9.0711C15.2838 10.8139 14.6051 12.4524 13.3727 13.6848C13.2748 13.7827 13.174 13.8768 13.071 13.9677ZM13.9565 14.626C14.0179 14.5685 14.0787 14.5103 14.1385 14.4506C15.5754 13.0136 16.3667 11.1031 16.3667 9.0711C16.3667 7.03899 15.5754 5.12852 14.1384 3.6916C14.0787 3.63187 14.0178 3.57367 13.9565 3.51616C14.9762 2.88448 16.1536 2.54628 17.3832 2.54628C19.126 2.54628 20.7645 3.22498 21.9968 4.45732C23.2293 5.68975 23.9079 7.32822 23.908 9.07106C23.9079 12.6688 20.9809 15.5958 17.3831 15.5959C16.1537 15.5959 14.9763 15.2577 13.9565 14.626Z" fill="#9EA0A4" stroke="#9EA0A4"/>
</svg>
