<svg width="35" height="35" viewBox="0 0 35 35" fill="none" xmlns="http://www.w3.org/2000/svg">
<circle cx="17.5" cy="17.5" r="17.5" fill="#F5AC37"/>
<path d="M18.2149 19.5819H23.4463C23.5578 19.5819 23.6105 19.5819 23.6185 19.4196C23.6613 18.8286 23.6613 18.2342 23.6185 17.6426C23.6185 17.5277 23.5671 17.4802 23.455 17.4802H13.0437C12.9148 17.4802 12.8801 17.5277 12.8801 17.6618V19.3625C12.8801 19.5819 12.8801 19.5819 13.0864 19.5819H18.2149ZM23.0343 15.4927C23.0492 15.4494 23.0492 15.4019 23.0343 15.3592C22.9469 15.148 22.8435 14.9464 22.7233 14.7573C22.5424 14.4339 22.3293 14.136 22.0864 13.8684C21.9718 13.7067 21.8392 13.5616 21.6905 13.4384C20.9458 12.7347 20.0605 12.2366 19.1089 11.9861C18.6288 11.8664 18.1381 11.8093 17.6462 11.8142H13.0257C12.8969 11.8142 12.8795 11.8713 12.8795 11.9958V15.3874C12.8795 15.5305 12.8795 15.5691 13.0431 15.5691H22.9723C22.9723 15.5691 23.0585 15.5498 23.0758 15.4927H23.0337H23.0343ZM23.0343 21.5695C22.8881 21.5516 22.7406 21.5516 22.5944 21.5695H13.0524C12.9235 21.5695 12.8801 21.5695 12.8801 21.7607V25.0767C12.8801 25.2294 12.8801 25.2679 13.0524 25.2679H17.4579C17.6685 25.2858 17.8792 25.2693 18.0855 25.2205C18.7248 25.1696 19.3536 25.0155 19.9534 24.7616C20.1714 24.6777 20.3821 24.5683 20.5809 24.4369H20.641C21.6738 23.8404 22.5126 22.9034 23.0417 21.7531C23.0417 21.7531 23.1018 21.6087 23.0343 21.5708V21.5695ZM11.151 26.9872V26.9301V24.7038V23.9491V21.7036C11.151 21.5791 11.151 21.5605 11.0135 21.5605H9.14621C9.04275 21.5605 9 21.5605 9 21.4078V19.5923H10.9961C11.1077 19.5923 11.151 19.5923 11.151 19.4299V17.6336C11.151 17.5187 11.151 17.4905 11.0135 17.4905H9.14621C9.04275 17.4905 9 17.4905 9 17.3378V15.6564C9 15.5512 9 15.523 9.13754 15.523H10.9875C11.1163 15.523 11.151 15.523 11.151 15.3413V10.1913C11.151 10.0385 11.151 10 11.3233 10H17.7763C18.2447 10.0206 18.71 10.0777 19.1703 10.172C20.1188 10.3667 21.0301 10.743 21.8634 11.2803C22.416 11.6415 22.9246 12.0776 23.3775 12.5799C23.7183 12.9727 24.0255 13.3978 24.2981 13.8505C24.5689 14.3094 24.7938 14.7999 24.9703 15.3124C24.992 15.4459 25.1073 15.536 25.2274 15.5133H26.7676C26.9652 15.5133 26.9652 15.5133 26.9739 15.7238V17.291C26.9739 17.4438 26.9225 17.4823 26.7843 17.4823H25.5967C25.4765 17.4823 25.4418 17.4823 25.4505 17.6543C25.4976 18.2363 25.4976 18.8204 25.4505 19.4024C25.4505 19.5647 25.4505 19.584 25.6147 19.584H26.9733C27.0334 19.67 26.9733 19.756 26.9733 19.8427C26.982 19.9534 26.982 20.0656 26.9733 20.1763V21.3328C26.9733 21.4952 26.9305 21.5433 26.8011 21.5433H25.1748C25.0614 21.5192 24.9511 21.5997 24.9251 21.7249C24.5379 22.8429 23.9184 23.8452 23.1179 24.6488C22.8255 24.9412 22.5182 25.2164 22.1973 25.4702C21.8528 25.6904 21.5177 25.9195 21.1645 26.1011C20.5147 26.4258 19.8332 26.6652 19.1337 26.8172C18.4696 26.9493 17.7961 27.0092 17.1202 26.9989H11.1485V26.9892L11.151 26.9872Z" fill="#FEFEFD"/>
</svg>
