<svg width="20" height="15" viewBox="0 0 20 15" fill="none" xmlns="http://www.w3.org/2000/svg">
<path d="M9.99975 0C8.2444 4.3144e-05 6.51999 0.447133 4.99984 1.29633C3.47968 2.14553 2.21734 3.36692 1.33968 4.83774C0.462029 6.30856 -1.11483e-05 7.97699 2.01746e-10 9.67533C1.11487e-05 11.3737 0.462073 13.0421 1.33975 14.5129C1.47235 14.7361 1.69119 14.8993 1.94812 14.9664C2.20504 15.0336 2.47901 14.9992 2.70975 14.8709C2.94048 14.7426 3.10909 14.5309 3.17848 14.2823C3.24787 14.0337 3.21235 13.7686 3.07975 13.5454C2.37119 12.3709 1.99843 11.0352 1.99975 9.67527C2.00022 8.48829 2.28285 7.31732 2.82577 6.2529C3.36869 5.18848 4.15736 4.25913 5.13079 3.53671C6.10423 2.81429 7.23635 2.31816 8.43961 2.08668C9.64287 1.8552 10.885 1.89457 12.0701 2.20175C13.2551 2.50893 14.3512 3.07568 15.2737 3.85819C16.1962 4.6407 16.9203 5.618 17.39 6.71451C17.8598 7.81103 18.0626 8.99739 17.9828 10.1819C17.903 11.3663 17.5427 12.5172 16.9297 13.5454C16.8636 13.6558 16.8207 13.7778 16.8036 13.9043C16.7864 14.0309 16.7952 14.1594 16.8296 14.2826C16.864 14.4058 16.9233 14.5212 17.0039 14.6222C17.0846 14.7232 17.1852 14.8077 17.2997 14.8709C17.5294 14.997 17.8012 15.0302 18.056 14.9631C18.3108 14.896 18.5278 14.7342 18.6597 14.5129C19.5374 13.0421 19.9995 11.3737 19.9995 9.67533C19.9995 7.97699 19.5375 6.30856 18.6598 4.83774C17.7822 3.36692 16.5198 2.14553 14.9997 1.29633C13.4795 0.447133 11.7551 4.3144e-05 9.99975 0ZM12.8397 5.57295L11.2897 7.06295C10.8885 6.87155 10.4471 6.77222 9.99975 6.77269C9.4064 6.77269 8.82638 6.94292 8.33304 7.26186C7.83969 7.5808 7.45517 8.03412 7.22811 8.5645C7.00104 9.09488 6.94163 9.67849 7.05739 10.2415C7.17315 10.8046 7.45887 11.3218 7.87843 11.7277C8.29798 12.1336 8.83253 12.4101 9.41448 12.5221C9.99642 12.6341 10.5996 12.5766 11.1478 12.3569C11.696 12.1372 12.1645 11.7652 12.4942 11.2879C12.8238 10.8105 12.9997 10.2493 12.9997 9.67527C12.9991 9.24568 12.8964 8.82198 12.6997 8.43683L14.2497 6.94684C14.3435 6.8569 14.4179 6.74989 14.4686 6.63199C14.5194 6.51408 14.5455 6.38762 14.5455 6.2599C14.5455 6.13217 14.5194 6.00571 14.4686 5.88781C14.4179 5.76991 14.3435 5.6629 14.2497 5.57295C14.0624 5.39275 13.8089 5.2916 13.5447 5.2916C13.2806 5.2916 13.0271 5.39275 12.8397 5.57295ZM9.99975 10.6428C9.73453 10.6428 9.48018 10.5409 9.29264 10.3594C9.1051 10.178 8.99975 9.93187 8.99975 9.67527C8.99975 9.41866 9.1051 9.17257 9.29264 8.99112C9.48018 8.80968 9.73453 8.70774 9.99975 8.70774C10.2607 8.70622 10.5119 8.80344 10.6997 8.97865C10.7954 9.0694 10.8713 9.17782 10.9228 9.29749C10.9744 9.41716 11.0005 9.54563 10.9997 9.67527C10.9997 9.93187 10.8944 10.178 10.7069 10.3594C10.5193 10.5409 10.265 10.6428 9.99975 10.6428Z" fill="#9EA0A4"/>
</svg>
