<svg width="25" height="25" viewBox="0 0 25 25" fill="none" xmlns="http://www.w3.org/2000/svg">
<path d="M8 11C8 11 8.6 6.4 9.5 5.5C10.4 4.6 14.9 3.5 16.5 3C17.8 2.5 18.9 1.8 20 1C22.4 2 24 4.4 24 7C21.1 8.7 21.1 10.8 19.5 12C18.7 12.7 17.6 13.1 16.5 13C15.2 13.2 14 13.7 13 14.5C11.8 15.3 10 16 9 15C8 14 10.4 11.9 11.5 11.5C12.6 11.1 14.5 10.1 15 9C14.6 8.4 13.7 8.3 13.5 8C13 8.2 12.5 8.4 12 8.5L11 11M14 19V14" stroke="#9EA0A4" stroke-width="1.5" stroke-linecap="round" stroke-linejoin="round"/>
<path d="M12.5 11H7.5C6.7 11 6 11.7 6 12.5V19" stroke="#9EA0A4" stroke-width="1.5" stroke-linecap="round" stroke-linejoin="round"/>
<path d="M6 18H5.5C5.2 18 5 18.2 5 18.5C5 18.8 5.2 19 5.5 19H14.5C14.8 19 15 18.8 15 18.5C15 18.2 14.8 18 14.5 18H14M1 24V21M1 21H19M1 21L4 16H6M19 21V24M19 21L16 16H14" stroke="#9EA0A4" stroke-width="1.5" stroke-linecap="round" stroke-linejoin="round"/>
</svg>
