<svg width="56" height="57" viewBox="0 0 56 57" fill="none" xmlns="http://www.w3.org/2000/svg">
<g clip-path="url(#clip0_111_312)">
<path d="M27.8359 56.5C43.2093 56.5 55.6719 44.0374 55.6719 28.6641C55.6719 13.2907 43.2093 0.828125 27.8359 0.828125C12.4626 0.828125 0 13.2907 0 28.6641C0 44.0374 12.4626 56.5 27.8359 56.5Z" fill="#2BE79A"/>
<path d="M30.3277 32.3918C30.4224 32.4853 30.4224 32.6378 30.3277 32.7325C29.81 33.2469 28.9983 33.4974 27.8437 33.4974L27.8347 33.4952L27.8258 33.4974C26.6723 33.4974 25.8595 33.2469 25.3418 32.7314C25.2471 32.6378 25.2471 32.4853 25.3418 32.3918C25.4353 32.2982 25.5889 32.2982 25.6836 32.3918C26.1056 32.8115 26.8059 33.0164 27.8258 33.0164L27.8347 33.0186L27.8437 33.0164C28.8624 33.0164 29.5628 32.8115 29.9859 32.3918C30.0805 32.2982 30.2342 32.2982 30.3277 32.3918ZM26.4975 29.6995C26.4975 29.135 26.0365 28.6762 25.4709 28.6762C24.9042 28.6762 24.4432 29.135 24.4432 29.6995C24.4432 30.2629 24.9042 30.7216 25.4709 30.7216C26.0365 30.7227 26.4975 30.264 26.4975 29.6995ZM41.1971 28.664C41.1971 36.0427 35.2146 42.0252 27.8359 42.0252C20.4571 42.0252 14.4746 36.0427 14.4746 28.664C14.4746 21.2852 20.4571 15.3027 27.8359 15.3027C35.2146 15.3027 41.1971 21.2852 41.1971 28.664ZM35.6299 28.5204C35.6299 27.5728 34.8561 26.8023 33.9041 26.8023C33.4398 26.8023 33.0189 26.9883 32.7083 27.2867C31.5325 26.5128 29.9414 26.0207 28.181 25.9572L29.1441 22.9242L31.7529 23.5355L31.7496 23.5733C31.7496 24.3483 32.3831 24.9785 33.1614 24.9785C33.9397 24.9785 34.5722 24.3483 34.5722 23.5733C34.5722 22.7984 33.9397 22.1682 33.1614 22.1682C32.5635 22.1682 32.0547 22.5412 31.8487 23.0634L29.0373 22.4042C28.9148 22.3742 28.789 22.4454 28.7511 22.5657L27.6766 25.9483C25.8328 25.9706 24.1637 26.4672 22.9356 27.2633C22.6272 26.9794 22.2186 26.8012 21.7665 26.8012C20.8156 26.8023 20.0418 27.5728 20.0418 28.5204C20.0418 29.1506 20.3881 29.6961 20.8969 29.9957C20.8635 30.1783 20.8412 30.3642 20.8412 30.5524C20.8412 33.0921 23.9644 35.1587 27.8036 35.1587C31.6427 35.1587 34.7659 33.0921 34.7659 30.5524C34.7659 30.3742 34.747 30.1994 34.7169 30.0268C35.258 29.7362 35.6299 29.1739 35.6299 28.5204ZM30.2053 28.6773C29.6385 28.6773 29.1787 29.1361 29.1787 29.7006C29.1787 30.264 29.6396 30.7227 30.2053 30.7227C30.7709 30.7227 31.2318 30.264 31.2318 29.7006C31.2318 29.1361 30.772 28.6773 30.2053 28.6773Z" fill="#121418"/>
</g>
<defs>
<clipPath id="clip0_111_312">
<rect width="55.6719" height="55.6719" fill="white" transform="translate(0 0.828125)"/>
</clipPath>
</defs>
</svg>
