<svg width="56" height="57" viewBox="0 0 56 57" fill="none" xmlns="http://www.w3.org/2000/svg">
<g clip-path="url(#clip0_111_293)">
<path d="M27.8359 56.2031C43.2093 56.2031 55.6719 43.7406 55.6719 28.3672C55.6719 12.9938 43.2093 0.53125 27.8359 0.53125C12.4626 0.53125 0 12.9938 0 28.3672C0 43.7406 12.4626 56.2031 27.8359 56.2031Z" fill="#2BE79A"/>
<path d="M27.8359 15.0059C20.4582 15.0059 14.4746 20.9884 14.4746 28.3671C14.4746 34.2706 18.3026 39.2788 23.6126 41.0458C24.2795 41.1694 24.4955 40.7552 24.4955 40.4034V37.9159C20.7789 38.7243 20.0051 36.3393 20.0051 36.3393C19.3971 34.795 18.5208 34.3841 18.5208 34.3841C17.3083 33.5546 18.6133 33.5724 18.6133 33.5724C19.9549 33.666 20.6609 34.9498 20.6609 34.9498C21.8522 36.9918 23.7863 36.4017 24.549 36.0598C24.6681 35.1969 25.0144 34.6068 25.3974 34.2739C22.4301 33.9343 19.3103 32.7886 19.3103 27.6701C19.3103 26.2104 19.8325 25.019 20.6865 24.0837C20.5484 23.7463 20.0908 22.3868 20.8167 20.5474C20.8167 20.5474 21.9391 20.1889 24.4922 21.917C25.5578 21.6208 26.7002 21.4727 27.8359 21.4671C28.9716 21.4727 30.1151 21.6208 31.1829 21.917C33.7337 20.1889 34.8539 20.5474 34.8539 20.5474C35.5809 22.3879 35.1233 23.7475 34.9852 24.0837C35.8426 25.019 36.3603 26.2115 36.3603 27.6701C36.3603 32.8019 33.2349 33.9321 30.2598 34.2628C30.7386 34.677 31.1762 35.4898 31.1762 36.7368V40.4034C31.1762 40.7586 31.39 41.1761 32.068 41.0447C37.3736 39.2755 41.1971 34.2683 41.1971 28.3671C41.1971 20.9884 35.2146 15.0059 27.8359 15.0059Z" fill="#121418"/>
</g>
<defs>
<clipPath id="clip0_111_293">
<rect width="55.6719" height="55.6719" fill="white" transform="translate(0 0.53125)"/>
</clipPath>
</defs>
</svg>
