<svg width="57" height="57" viewBox="0 0 57 57" fill="none" xmlns="http://www.w3.org/2000/svg">
<g clip-path="url(#clip0_111_288)">
<path d="M28.3359 56.2031C43.7093 56.2031 56.1719 43.7406 56.1719 28.3672C56.1719 12.9938 43.7093 0.53125 28.3359 0.53125C12.9626 0.53125 0.5 12.9938 0.5 28.3672C0.5 43.7406 12.9626 56.2031 28.3359 56.2031Z" fill="#2BE79A"/>
<path fill-rule="evenodd" clip-rule="evenodd" d="M35.3327 17.2329C36.5909 17.2329 37.6153 18.2573 37.6153 19.5266V39.5017L35.2214 37.3861L33.8741 36.1391L32.4489 34.8141L33.0391 36.8739H20.4127C19.1545 36.8739 18.1301 35.8496 18.1301 34.5803V19.5266C18.1301 18.2573 19.1545 17.2329 20.4127 17.2329H35.3327ZM31.0349 31.7744C33.4956 31.6965 34.442 30.082 34.442 30.082C34.442 26.4967 32.8386 23.5906 32.8386 23.5906C31.2353 22.3881 29.7099 22.4215 29.7099 22.4215L29.554 22.5997C31.4468 23.1787 32.3265 24.0137 32.3265 24.0137C31.1685 23.3791 30.0328 23.0673 28.975 22.9448C28.1733 22.8558 27.4051 22.878 26.7259 22.9671L26.5366 22.9894C26.1469 23.0228 25.2005 23.1675 24.0091 23.6908C23.5971 23.8801 23.3521 24.0137 23.3521 24.0137C23.3521 24.0137 24.2763 23.1341 26.2805 22.5551L26.1691 22.4215C26.1691 22.4215 24.6437 22.3881 23.0404 23.5906C23.0404 23.5906 21.437 26.4967 21.437 30.082C21.437 30.082 22.3723 31.6965 24.833 31.7744C24.833 31.7744 25.245 31.2734 25.579 30.8502C24.165 30.4271 23.6305 29.5364 23.6305 29.5364L23.9423 29.7257L23.9868 29.7591L24.0305 29.7841L24.0434 29.7897L24.087 29.8148C24.3654 29.9706 24.6437 30.0931 24.8998 30.1933C25.3563 30.3715 25.9019 30.5496 26.5366 30.6721C27.3717 30.828 28.3515 30.8837 29.4204 30.6832C29.9437 30.5942 30.4781 30.4383 31.0349 30.2045C31.4246 30.0597 31.8588 29.8482 32.3153 29.5475C32.3153 29.5475 31.7586 30.4605 30.3 30.8725C30.634 31.2956 31.0349 31.7744 31.0349 31.7744ZM25.8574 26.5746C25.2227 26.5746 24.7217 27.1314 24.7217 27.8106C24.7217 28.4898 25.2339 29.0465 25.8574 29.0465C26.492 29.0465 26.9931 28.4898 26.9931 27.8106C27.0042 27.1314 26.492 26.5746 25.8574 26.5746ZM29.9214 26.5746C29.2868 26.5746 28.7857 27.1314 28.7857 27.8106C28.7857 28.4898 29.2979 29.0465 29.9214 29.0465C30.5561 29.0465 31.0571 28.4898 31.0571 27.8106C31.0571 27.1314 30.5561 26.5746 29.9214 26.5746Z" fill="#121418"/>
</g>
<defs>
<clipPath id="clip0_111_288">
<rect width="55.6719" height="55.6719" fill="white" transform="translate(0.5 0.53125)"/>
</clipPath>
</defs>
</svg>
