<svg width="15" height="15" viewBox="0 0 15 15" fill="none" xmlns="http://www.w3.org/2000/svg">
<path d="M15 0.681818V4.09091C15 4.46591 14.6932 4.77273 14.3182 4.77273C13.9432 4.77273 13.6364 4.46591 13.6364 4.09091V2.33523L9.68182 6.28977C9.54545 6.42614 9.375 6.49432 9.20455 6.49432C9.03409 6.49432 8.86364 6.42614 8.72727 6.28977C8.45455 6.01705 8.45455 5.59091 8.72727 5.31818L12.6648 1.36364H10.9091C10.5341 1.36364 10.2273 1.05682 10.2273 0.681818C10.2273 0.306818 10.5341 0 10.9091 0H14.3182C14.5057 0 14.6761 0.0681818 14.7955 0.204545C14.9318 0.323864 15 0.494318 15 0.681818ZM14.3182 10.2273C13.9432 10.2273 13.6364 10.5341 13.6364 10.9091V12.6648L9.75 8.8125C9.47727 8.53977 9.03409 8.53977 8.76136 8.8125C8.48864 9.08523 8.48864 9.51136 8.74432 9.78409L12.5966 13.6364H10.8409C10.4659 13.6364 10.1591 13.9432 10.1591 14.3182C10.1591 14.6932 10.4659 15 10.8409 15H14.25C14.4375 15 14.642 14.9318 14.7614 14.7955C14.8977 14.6591 15 14.4886 15 14.3182V10.9091C15 10.5341 14.6932 10.2273 14.3182 10.2273ZM5.25 8.77841L1.36364 12.6648V10.9091C1.36364 10.5341 1.05682 10.2273 0.681818 10.2273C0.306818 10.2273 0 10.5341 0 10.9091V14.3182C0 14.5057 0.0681818 14.6761 0.204545 14.7955C0.340909 14.9318 0.511364 15 0.698864 15H4.10795C4.48295 15 4.78977 14.6932 4.78977 14.3182C4.78977 13.9432 4.48295 13.6364 4.10795 13.6364H2.33523L6.22159 9.75C6.49432 9.47727 6.47727 9.05114 6.22159 8.77841C5.96591 8.50568 5.52273 8.50568 5.25 8.77841ZM2.33523 1.43182H4.09091C4.46591 1.43182 4.77273 1.125 4.77273 0.75C4.77273 0.375 4.46591 0.0681818 4.09091 0.0681818H0.681818C0.494318 0.0681818 0.323864 0.136364 0.204545 0.272727C0.0681818 0.392045 0 0.5625 0 0.75V4.15909C0 4.53409 0.306818 4.84091 0.681818 4.84091C1.05682 4.84091 1.36364 4.53409 1.36364 4.15909V2.38636L5.30114 6.32386C5.4375 6.46023 5.60795 6.52841 5.77841 6.52841C5.94886 6.52841 6.11932 6.46023 6.25568 6.32386C6.52841 6.05114 6.52841 5.625 6.25568 5.35227L2.33523 1.43182Z" fill="white"/>
</svg>
