<svg width="57" height="57" viewBox="0 0 57 57" fill="none" xmlns="http://www.w3.org/2000/svg">
<g clip-path="url(#clip0_111_296)">
<path d="M27.7678 55.0669C42.8274 55.0669 55.0356 42.8587 55.0356 27.7991C55.0356 12.7395 42.8274 0.53125 27.7678 0.53125C12.7082 0.53125 0.5 12.7395 0.5 27.7991C0.5 42.8587 12.7082 55.0669 27.7678 55.0669Z" fill="#2BE79A"/>
<path d="M27.6402 17.9749C30.7983 17.9749 31.1743 17.9854 32.421 18.0437C35.6269 18.1893 37.1252 19.7114 37.2708 22.8933C37.3289 24.1401 37.3395 24.516 37.3395 27.6741C37.3395 30.8349 37.3289 31.2082 37.2708 32.455C37.1252 35.6342 35.6295 37.159 32.421 37.3047C31.1743 37.3629 30.801 37.3734 27.6402 37.3734C24.4822 37.3734 24.1063 37.3629 22.8594 37.3047C19.6457 37.1563 18.1554 35.6263 18.0098 32.4523C17.9516 31.2056 17.9409 30.8323 17.9409 27.6715C17.9409 24.5134 17.9543 24.1401 18.0098 22.8907C18.1554 19.7088 19.651 18.1867 22.8594 18.0411C24.1089 17.9854 24.4822 17.9749 27.6402 17.9749Z" fill="#121418"/>
<path d="M27.6401 15.8411C24.4264 15.8411 24.0241 15.8543 22.7639 15.9126C18.4676 16.1084 16.0798 18.4936 15.8814 22.7925C15.823 24.0553 15.8098 24.4577 15.8098 27.6713C15.8098 30.885 15.823 31.2874 15.8814 32.5501C16.0772 36.8465 18.4623 39.2342 22.7613 39.4301C24.0241 39.4884 24.4264 39.5016 27.6401 39.5016C30.8537 39.5016 31.2561 39.4884 32.5189 39.4301C36.8099 39.2342 39.2056 36.8491 39.3988 32.5501C39.4571 31.2874 39.4704 30.885 39.4704 27.6713C39.4704 24.4577 39.4571 24.0553 39.3988 22.7952C39.2056 18.5015 36.8179 16.1111 32.5189 15.9126C31.2561 15.8543 30.8537 15.8411 27.6401 15.8411Z" fill="#141722"/>
<path d="M27.6396 21.5957C24.2857 21.5957 21.5645 24.3143 21.5645 27.6709C21.5645 31.0276 24.283 33.7462 27.6396 33.7462C30.9964 33.7462 33.715 31.0276 33.715 27.6709C33.715 24.3169 30.9937 21.5957 27.6396 21.5957Z" fill="#2BE79A"/>
<path d="M27.6402 31.6158C29.8185 31.6158 31.5845 29.8497 31.5845 27.6714C31.5845 25.493 29.8185 23.7271 27.6402 23.7271C25.4617 23.7271 23.6958 25.493 23.6958 27.6714C23.6958 29.8497 25.4617 31.6158 27.6402 31.6158Z" fill="#141722"/>
<path d="M33.956 19.9363C33.1724 19.9363 32.5344 20.5716 32.5344 21.3552C32.5344 22.1387 33.1698 22.774 33.956 22.774C34.7396 22.774 35.3748 22.1387 35.3748 21.3552C35.3748 20.5716 34.7396 19.9363 33.956 19.9363Z" fill="#2BE79A"/>
</g>
<defs>
<clipPath id="clip0_111_296">
<rect width="55.6719" height="55.6719" fill="white" transform="translate(0.5 0.53125)"/>
</clipPath>
</defs>
</svg>
