<svg width="15" height="18" viewBox="0 0 15 18" fill="none" xmlns="http://www.w3.org/2000/svg">
<path fill-rule="evenodd" clip-rule="evenodd" d="M5.9922 9.987C3.77633 9.987 1.9974 8.20806 1.9974 5.9922C1.9974 3.77633 3.77633 1.9974 5.9922 1.9974C8.20806 1.9974 9.987 3.77633 9.987 5.9922C9.987 8.20806 8.20806 9.987 5.9922 9.987ZM5.9922 0C9.30039 0 11.9844 2.68401 11.9844 5.9922C11.9844 9.30039 9.30039 11.9844 5.9922 11.9844C2.68401 11.9844 0 9.30039 0 5.9922C0 2.68401 2.68401 0 5.9922 0ZM11.7035 12.2965C12.1092 12.7022 12.1092 13.3264 11.7035 13.7009L7.70871 17.6957C7.30299 18.1014 6.67881 18.1014 6.30429 17.6957C5.89857 17.29 5.89857 16.6658 6.30429 16.2913L10.2991 12.2965C10.6736 11.8908 11.329 11.8908 11.7035 12.2965ZM14.013 0.998701C14.013 1.56047 13.5761 1.9974 13.0143 1.9974C12.4525 1.9974 12.0156 1.56047 12.0156 0.998701C12.0156 0.436933 12.4525 0 13.0143 0C13.5449 0 14.013 0.436933 14.013 0.998701Z" fill="white"/>
</svg>
