<svg width="23" height="23" viewBox="0 0 23 23" fill="none" xmlns="http://www.w3.org/2000/svg">
<path d="M16.4915 8.04581H6.48795C6.06772 8.04581 5.71924 7.69735 5.71924 7.27716C5.71924 6.85689 6.06772 6.50842 6.48795 6.50842H16.4915C16.9117 6.50842 17.2603 6.85689 17.2603 7.27716C17.2603 7.69735 16.9117 8.04581 16.4915 8.04581ZM16.4915 12.2379H6.48795C6.06772 12.2379 5.71924 11.8895 5.71924 11.4693C5.71924 11.049 6.06772 10.7005 6.48795 10.7005H16.4915C16.9117 10.7005 17.2603 11.049 17.2603 11.4693C17.2603 11.8895 16.9117 12.2379 16.4915 12.2379ZM16.4915 16.4915H6.48795C6.06772 16.4915 5.71924 16.143 5.71924 15.7227C5.71924 15.3025 6.06772 14.9541 6.48795 14.9541H16.4915C16.9117 14.9541 17.2603 15.3025 17.2603 15.7227C17.2603 16.143 16.9117 16.4915 16.4915 16.4915Z" fill="#BEFFBA"/>
<path d="M16.9322 23H6.05748C2.71613 23 0 20.2838 0 16.9425V6.05748C0 2.71613 2.71613 0 6.05748 0H16.9322C20.2736 0 22.9897 2.71613 22.9897 6.05748V16.9322C22.9897 20.2838 20.2736 23 16.9322 23ZM6.04724 1.53743C3.55659 1.53743 1.52719 3.56684 1.52719 6.05748V16.9322C1.52719 19.4228 3.55659 21.4523 6.04724 21.4523H16.9322C19.4228 21.4523 21.4523 19.4228 21.4523 16.9322V6.05748C21.4523 3.56684 19.4228 1.53743 16.9322 1.53743H6.04724Z" fill="#BEFFBA"/>
<path d="M17.2807 22.385C16.8605 22.385 16.512 22.0365 16.512 21.6163V18.9001C16.512 17.6497 17.5267 16.635 18.7772 16.635H21.0525C21.4728 16.635 21.8212 16.9835 21.8212 17.4037C21.8212 17.8239 21.4728 18.1725 21.0525 18.1725H18.7772C18.3774 18.1725 18.0494 18.5004 18.0494 18.9001V21.6163C18.0494 22.0468 17.7112 22.385 17.2807 22.385Z" fill="#BEFFBA"/>
</svg>
