<svg width="56" height="57" viewBox="0 0 56 57" fill="none" xmlns="http://www.w3.org/2000/svg">
<g clip-path="url(#clip0_111_304)">
<path d="M27.8359 56.5C43.2093 56.5 55.6719 44.0374 55.6719 28.6641C55.6719 13.2907 43.2093 0.828125 27.8359 0.828125C12.4626 0.828125 0 13.2907 0 28.6641C0 44.0374 12.4626 56.5 27.8359 56.5Z" fill="#2BE79A"/>
<path fill-rule="evenodd" clip-rule="evenodd" d="M33.8308 39.5648C34.1893 39.806 34.6514 39.8663 35.0633 39.7182C35.4752 39.569 35.7781 39.2348 35.8694 38.8297C36.8369 34.5098 39.1841 23.5756 40.0648 19.6459C40.1316 19.3498 40.0203 19.042 39.7753 18.8442C39.5303 18.6464 39.1907 18.5893 38.8879 18.6961C34.2194 20.3377 19.8419 25.4627 13.9653 27.5284C13.5923 27.6596 13.3495 28.0003 13.3618 28.3736C13.3751 28.7481 13.6401 29.0729 14.022 29.1818C16.6574 29.9307 20.1169 30.9726 20.1169 30.9726C20.1169 30.9726 21.7335 35.6109 22.5764 37.9697C22.6821 38.2659 22.926 38.4986 23.2478 38.5789C23.5684 38.6583 23.9114 38.5747 24.1508 38.36C25.5046 37.1457 27.5978 35.2681 27.5978 35.2681C27.5978 35.2681 31.5749 38.0385 33.8308 39.5648ZM21.572 30.3866L23.4415 36.2445L23.8568 32.5349C23.8568 32.5349 31.0795 26.3458 35.1969 22.8182C35.3172 22.7146 35.3338 22.5411 35.2337 22.4194C35.1346 22.2978 34.952 22.2692 34.815 22.3517C30.043 25.2469 21.572 30.3866 21.572 30.3866Z" fill="#121418"/>
</g>
<defs>
<clipPath id="clip0_111_304">
<rect width="55.6719" height="55.6719" fill="white" transform="translate(0 0.828125)"/>
</clipPath>
</defs>
</svg>
