<svg width="56" height="57" viewBox="0 0 56 57" fill="none" xmlns="http://www.w3.org/2000/svg">
<g clip-path="url(#clip0_111_284)">
<path d="M27.8359 56.2031C43.2093 56.2031 55.6719 43.7406 55.6719 28.3672C55.6719 12.9938 43.2093 0.53125 27.8359 0.53125C12.4626 0.53125 0 12.9938 0 28.3672C0 43.7406 12.4626 56.2031 27.8359 56.2031Z" fill="#2BE79A"/>
<path d="M38.9704 22.6823C38.1511 23.0404 37.2705 23.2815 36.3464 23.3901C37.29 22.834 38.0147 21.9525 38.3552 20.902C37.4728 21.4172 36.4949 21.7917 35.4538 21.9935C34.6215 21.1195 33.433 20.5732 32.1191 20.5732C29.1694 20.5732 27.0018 23.2823 27.6681 26.0948C23.8722 25.9075 20.5059 24.1172 18.2521 21.3962C17.0552 23.4176 17.6314 26.0618 19.6653 27.401C18.9174 27.3771 18.2123 27.1754 17.5971 26.8382C17.547 28.9217 19.064 30.871 21.2612 31.3048C20.6182 31.4766 19.9139 31.5167 19.1977 31.3815C19.7784 33.1681 21.4653 34.4679 23.4658 34.5045C21.5451 35.9869 19.1253 36.6492 16.7017 36.3678C18.7234 37.6438 21.1257 38.3882 23.7052 38.3882C32.1877 38.3882 36.9801 31.3358 36.6906 25.0105C37.5833 24.3757 38.358 23.5839 38.9704 22.6823Z" fill="#121418"/>
</g>
<defs>
<clipPath id="clip0_111_284">
<rect width="55.6719" height="55.6719" fill="white" transform="translate(0 0.53125)"/>
</clipPath>
</defs>
</svg>
