<svg width="57" height="57" viewBox="0 0 57 57" fill="none" xmlns="http://www.w3.org/2000/svg">
<g clip-path="url(#clip0_111_309)">
<path d="M28.3359 56.5C43.7093 56.5 56.1719 44.0374 56.1719 28.6641C56.1719 13.2907 43.7093 0.828125 28.3359 0.828125C12.9626 0.828125 0.5 13.2907 0.5 28.6641C0.5 44.0374 12.9626 56.5 28.3359 56.5Z" fill="#2BE79A"/>
<path d="M36.8147 18.8481C32.8019 18.5742 23.8643 18.5753 19.857 18.8481C15.518 19.1443 15.0069 21.7653 14.9746 28.6641C15.0069 35.5508 15.5135 38.1829 19.857 38.4802C23.8654 38.753 32.8019 38.7541 36.8147 38.4802C41.1538 38.184 41.6648 35.563 41.6971 28.6641C41.6648 21.7775 41.1582 19.1454 36.8147 18.8481ZM24.9955 33.1179V24.2104L33.903 28.6563L24.9955 33.1179Z" fill="#121418"/>
</g>
<defs>
<clipPath id="clip0_111_309">
<rect width="55.6719" height="55.6719" fill="white" transform="translate(0.5 0.828125)"/>
</clipPath>
</defs>
</svg>
